<svg width="993" height="683" viewBox="0 0 993 683" fill="none" xmlns="http://www.w3.org/2000/svg">
<g filter="url(#filter0_d_82_227667)">
<g clip-path="url(#clip0_82_227667)">
<rect x="2" y="2" width="977" height="667" rx="20" fill="white"/>
<path d="M23 26.6937C20.6988 26.6937 18.8333 24.8283 18.8333 22.5271C18.8333 20.2258 20.6988 18.3604 23 18.3604C25.3013 18.3604 27.1667 20.2258 27.1667 22.5271C27.1667 24.8283 25.3013 26.6937 23 26.6937Z" fill="#E11D48"/>
<path d="M38 26.6937C35.6988 26.6937 33.8333 24.8283 33.8333 22.5271C33.8333 20.2258 35.6988 18.3604 38 18.3604C40.3013 18.3604 42.1667 20.2258 42.1667 22.5271C42.1667 24.8283 40.3013 26.6937 38 26.6937Z" fill="#FBBF24"/>
<path d="M53 26.6937C50.6988 26.6937 48.8333 24.8283 48.8333 22.5271C48.8333 20.2258 50.6988 18.3604 53 18.3604C55.3013 18.3604 57.1667 20.2258 57.1667 22.5271C57.1667 24.8283 55.3013 26.6937 53 26.6937Z" fill="#22C55E"/>
<path d="M920.757 22.5L925.707 27.45C925.802 27.5422 925.879 27.6526 925.931 27.7746C925.983 27.8966 926.011 28.0278 926.012 28.1606C926.013 28.2934 925.988 28.4251 925.938 28.548C925.888 28.6708 925.813 28.7825 925.719 28.8764C925.625 28.9703 925.514 29.0445 925.391 29.0948C925.268 29.1451 925.136 29.1704 925.004 29.1692C924.871 29.1681 924.74 29.1405 924.618 29.0881C924.496 29.0357 924.385 28.9595 924.293 28.864L918.636 23.207C918.449 23.0195 918.343 22.7652 918.343 22.5C918.343 22.2348 918.449 21.9805 918.636 21.793L924.293 16.136C924.482 15.9538 924.734 15.853 924.996 15.8553C925.259 15.8576 925.509 15.9628 925.695 16.1482C925.88 16.3336 925.985 16.5844 925.988 16.8466C925.99 17.1088 925.889 17.3614 925.707 17.55L920.757 22.5Z" fill="#94A3B8"/>
<path d="M952.314 22.571L947.364 17.621C947.182 17.4324 947.081 17.1798 947.083 16.9176C947.086 16.6554 947.191 16.4046 947.376 16.2192C947.562 16.0338 947.812 15.9286 948.075 15.9263C948.337 15.924 948.589 16.0248 948.778 16.207L954.435 21.864C954.622 22.0515 954.728 22.3058 954.728 22.571C954.728 22.8361 954.622 23.0905 954.435 23.278L948.778 28.935C948.589 29.1171 948.337 29.2179 948.075 29.2157C947.812 29.2134 947.562 29.1082 947.376 28.9228C947.191 28.7374 947.086 28.4866 947.083 28.2244C947.081 27.9622 947.182 27.7096 947.364 27.521L952.314 22.571Z" fill="#475569"/>
<rect x="2" y="43" width="977" height="626" fill="#DBEAFE"/>
<path d="M2 43.8347H165.652V669H2V43.8347Z" fill="#BFDBFE"/>
<path d="M21.6382 103.096C21.6382 97.5643 26.0343 93.08 31.4573 93.08H136.194C141.617 93.08 146.013 97.5643 146.013 103.096C146.013 108.628 141.617 113.112 136.194 113.112H31.4573C26.0343 113.112 21.6382 108.628 21.6382 103.096Z" fill="#93C5FD"/>
<path d="M60.9146 173.208C60.9146 170.442 63.1127 168.2 65.8241 168.2H147.65C150.361 168.2 152.559 170.442 152.559 173.208C152.559 175.974 150.361 178.216 147.65 178.216H65.8241C63.1127 178.216 60.9146 175.974 60.9146 173.208Z" fill="white"/>
<path d="M60.9146 226.627C60.9146 223.861 63.1127 221.619 65.8241 221.619H122.284C124.995 221.619 127.193 223.861 127.193 226.627C127.193 229.392 124.995 231.635 122.284 231.635H65.8241C63.1127 231.635 60.9146 229.392 60.9146 226.627Z" fill="white"/>
<path d="M60.9146 280.045C60.9146 277.28 63.1127 275.037 65.8241 275.037H136.194C138.906 275.037 141.104 277.28 141.104 280.045C141.104 282.811 138.906 285.053 136.194 285.053H65.8241C63.1127 285.053 60.9146 282.811 60.9146 280.045Z" fill="white"/>
<path fill-rule="evenodd" clip-rule="evenodd" d="M34.7303 184.059C40.6052 184.059 45.3677 179.201 45.3677 173.208C45.3677 167.215 40.6052 162.357 34.7303 162.357C28.8555 162.357 24.093 167.215 24.093 173.208C24.093 179.201 28.8555 184.059 34.7303 184.059ZM34.7303 186.563C41.9609 186.563 47.8224 180.584 47.8224 173.208C47.8224 165.832 41.9609 159.853 34.7303 159.853C27.4997 159.853 21.6382 165.832 21.6382 173.208C21.6382 180.584 27.4997 186.563 34.7303 186.563Z" fill="#93C5FD"/>
<path d="M218.02 103.096C218.02 99.4082 220.951 96.4186 224.566 96.4186H319.484C323.099 96.4186 326.03 99.4082 326.03 103.096C326.03 106.784 323.099 109.773 319.484 109.773H224.566C220.951 109.773 218.02 106.784 218.02 103.096Z" fill="#BFDBFE"/>
<path fill-rule="evenodd" clip-rule="evenodd" d="M391.9 372.327C391.948 367.566 395.656 363.512 400.421 363.512C403.346 363.512 405.498 364.989 406.871 366.38C407.253 366.767 407.581 367.153 407.856 367.509C408.131 367.153 408.459 366.767 408.841 366.38C410.214 364.989 412.366 363.512 415.291 363.512C420.056 363.512 423.764 367.566 423.812 372.327L423.812 372.327C423.903 381.612 416.589 388.036 409.237 393.126C408.83 393.409 408.348 393.56 407.856 393.56C407.363 393.56 406.882 393.409 406.475 393.126C399.123 388.036 391.808 381.612 391.9 372.327L391.9 372.327ZM408.952 370.335C408.744 370.757 408.32 371.024 407.856 371.024C407.392 371.024 406.968 370.757 406.76 370.335C406.759 370.335 406.759 370.334 406.758 370.332C406.757 370.329 406.754 370.324 406.751 370.318C406.749 370.314 406.747 370.31 406.744 370.305C406.731 370.279 406.708 370.236 406.676 370.179C406.611 370.064 406.511 369.894 406.374 369.686C406.1 369.268 405.688 368.711 405.141 368.157C404.042 367.043 402.476 366.016 400.421 366.016C397.092 366.016 394.39 368.87 394.355 372.352M408.952 370.335C408.953 370.335 408.953 370.334 408.954 370.332C408.956 370.328 408.961 370.319 408.968 370.305C408.981 370.279 409.004 370.236 409.036 370.179C409.101 370.064 409.201 369.894 409.337 369.686C409.612 369.268 410.024 368.711 410.571 368.157C411.67 367.043 413.236 366.016 415.291 366.016C418.62 366.016 421.322 368.87 421.357 372.352C421.434 380.176 415.273 385.92 407.857 391.055L407.856 391.056L407.855 391.055C400.438 385.92 394.278 380.177 394.355 372.352" fill="white"/>
<path d="M218.02 378.536C218.02 374.848 220.951 371.859 224.566 371.859H268.752C272.367 371.859 275.298 374.848 275.298 378.536C275.298 382.224 272.367 385.213 268.752 385.213H224.566C220.951 385.213 218.02 382.224 218.02 378.536Z" fill="#BFDBFE"/>
<path d="M288.39 378.536C288.39 374.848 291.321 371.859 294.936 371.859H368.58C372.195 371.859 375.126 374.848 375.126 378.536C375.126 382.224 372.195 385.213 368.58 385.213H294.936C291.321 385.213 288.39 382.224 288.39 378.536Z" fill="#BFDBFE"/>
<path d="M218.02 443.64C218.02 440.874 220.218 438.632 222.93 438.632H291.663C294.375 438.632 296.573 440.874 296.573 443.64C296.573 446.406 294.375 448.648 291.663 448.648H222.93C220.218 448.648 218.02 446.406 218.02 443.64Z" fill="white"/>
<path d="M218.02 467.011C218.02 464.245 220.218 462.003 222.93 462.003H328.485C331.196 462.003 333.394 464.245 333.394 467.011C333.394 469.777 331.196 472.019 328.485 472.019H222.93C220.218 472.019 218.02 469.777 218.02 467.011Z" fill="white"/>
<path d="M309.665 443.64C309.665 440.874 311.863 438.632 314.575 438.632H396.4C399.112 438.632 401.31 440.874 401.31 443.64C401.31 446.406 399.112 448.648 396.4 448.648H314.575C311.863 448.648 309.665 446.406 309.665 443.64Z" fill="white"/>
<path d="M218.02 168.2C218.02 165.434 220.218 163.192 222.93 163.192H291.663C294.375 163.192 296.573 165.434 296.573 168.2C296.573 170.966 294.375 173.208 291.663 173.208H222.93C220.218 173.208 218.02 170.966 218.02 168.2Z" fill="white"/>
<path d="M218.02 191.571C218.02 188.805 220.218 186.563 222.93 186.563H392.309C395.021 186.563 397.219 188.805 397.219 191.571C397.219 194.337 395.021 196.579 392.309 196.579H222.93C220.218 196.579 218.02 194.337 218.02 191.571Z" fill="white"/>
<path d="M309.665 168.2C309.665 165.434 311.863 163.192 314.575 163.192H501.137C503.849 163.192 506.047 165.434 506.047 168.2C506.047 170.966 503.849 173.208 501.137 173.208H314.575C311.863 173.208 309.665 170.966 309.665 168.2Z" fill="white"/>
<path fill-rule="evenodd" clip-rule="evenodd" d="M46.1859 215.776H24.9112V237.477H46.1859V215.776ZM22.4565 213.272V239.981H48.6407V213.272H22.4565Z" fill="#60A5FA"/>
<g clip-path="url(#clip1_82_227667)">
<rect x="569.053" y="103.096" width="163.652" height="228.699" rx="20" fill="white"/>
<path d="M678.066 331.992C678.066 389.864 632.455 436.778 576.191 436.778C519.926 436.778 474.315 389.864 474.315 331.992C474.315 274.121 519.926 227.207 576.191 227.207C632.455 227.207 678.066 274.121 678.066 331.992Z" fill="#FACC15"/>
<path fill-rule="evenodd" clip-rule="evenodd" d="M755.423 192.164L702.192 137.866L648.961 192.164L702.192 246.462L755.423 192.164ZM702.192 133.144L644.333 192.164L702.192 251.184L760.052 192.164L702.192 133.144Z" fill="#BFDBFE"/>
</g>
<path d="M35.5486 268.36L48.6407 291.491H22.4565L35.5486 268.36Z" fill="#93C5FD"/>
<rect x="758.889" y="103.096" width="163.652" height="168.603" rx="20" fill="white"/>
<path fill-rule="evenodd" clip-rule="evenodd" d="M832.505 228.811C848.821 228.811 861.936 215.444 861.936 199.094C861.936 182.744 848.821 169.377 832.505 169.377C816.19 169.377 803.075 182.744 803.075 199.094C803.075 215.444 816.19 228.811 832.505 228.811ZM832.505 237.157C853.279 237.157 870.119 220.116 870.119 199.094C870.119 178.072 853.279 161.031 832.505 161.031C811.732 161.031 794.892 178.072 794.892 199.094C794.892 220.116 811.732 237.157 832.505 237.157Z" fill="#BFDBFE"/>
<path d="M849.6 187.046L860.421 145.851L889.985 176.008L849.6 187.046Z" fill="#FACC15"/>
<g clip-path="url(#clip2_82_227667)">
<rect x="569.053" y="358.504" width="163.652" height="255.408" rx="20" fill="white"/>
<path fill-rule="evenodd" clip-rule="evenodd" d="M722.476 646.464C768.345 646.464 805.529 608.534 805.529 561.745C805.529 514.957 768.345 477.027 722.476 477.027C676.607 477.027 639.423 514.957 639.423 561.745C639.423 608.534 676.607 646.464 722.476 646.464ZM722.476 654.811C772.864 654.811 813.712 613.144 813.712 561.745C813.712 510.347 772.864 468.68 722.476 468.68C672.088 468.68 631.24 510.347 631.24 561.745C631.24 613.144 672.088 654.811 722.476 654.811Z" fill="#FACC15"/>
<path d="M654.97 434.648C654.97 450.425 642.331 463.215 626.74 463.215C611.149 463.215 598.51 450.425 598.51 434.648C598.51 418.87 611.149 406.08 626.74 406.08C642.331 406.08 654.97 418.87 654.97 434.648Z" fill="#BFDBFE"/>
<path fill-rule="evenodd" clip-rule="evenodd" d="M626.74 460.711C640.994 460.711 652.515 449.023 652.515 434.648C652.515 420.272 640.994 408.584 626.74 408.584C612.486 408.584 600.965 420.272 600.965 434.648C600.965 449.023 612.486 460.711 626.74 460.711ZM626.74 463.215C642.331 463.215 654.97 450.425 654.97 434.648C654.97 418.87 642.331 406.08 626.74 406.08C611.149 406.08 598.51 418.87 598.51 434.648C598.51 450.425 611.149 463.215 626.74 463.215Z" fill="#BFDBFE"/>
</g>
<g clip-path="url(#clip3_82_227667)">
<rect x="758.889" y="298.408" width="163.652" height="285.456" rx="20" fill="white"/>
<path d="M960.18 504.153C960.18 524.667 944.061 541.296 924.177 541.296C904.293 541.296 888.173 524.667 888.173 504.153C888.173 483.64 904.293 467.011 924.177 467.011C944.061 467.011 960.18 483.64 960.18 504.153Z" fill="white"/>
<path fill-rule="evenodd" clip-rule="evenodd" d="M924.177 538.792C942.679 538.792 957.725 523.31 957.725 504.153C957.725 484.996 942.679 469.515 924.177 469.515C905.674 469.515 890.628 484.996 890.628 504.153C890.628 523.31 905.674 538.792 924.177 538.792ZM924.177 541.296C944.061 541.296 960.18 524.667 960.18 504.153C960.18 483.64 944.061 467.011 924.177 467.011C904.293 467.011 888.173 483.64 888.173 504.153C888.173 524.667 904.293 541.296 924.177 541.296Z" fill="#BFDBFE"/>
<path d="M894.719 398.985C894.719 426.413 873.105 448.648 846.442 448.648C819.779 448.648 798.165 426.413 798.165 398.985C798.165 371.557 819.779 349.323 846.442 349.323C873.105 349.323 894.719 371.557 894.719 398.985Z" fill="#BFDBFE"/>
<path d="M789.164 494.555L791.473 501.329L798.503 501.476L792.9 505.809L794.936 512.674L789.164 508.577L783.393 512.674L785.429 505.809L779.826 501.476L786.856 501.329L789.164 494.555Z" fill="#FACC15"/>
<path d="M822.713 494.555L825.021 501.329L832.051 501.476L826.448 505.809L828.484 512.674L822.713 508.577L816.941 512.674L818.977 505.809L813.374 501.476L820.404 501.329L822.713 494.555Z" fill="#FACC15"/>
<path d="M856.261 494.555L858.57 501.329L865.6 501.476L859.997 505.809L862.033 512.674L856.261 508.577L850.49 512.674L852.526 505.809L846.923 501.476L853.953 501.329L856.261 494.555Z" fill="#FACC15"/>
<path d="M889.81 494.555L892.118 501.329L899.148 501.476L893.545 505.809L895.581 512.674L889.81 508.577L884.038 512.674L886.074 505.809L880.471 501.476L887.501 501.329L889.81 494.555Z" fill="#FACC15"/>
<path d="M923.358 494.555L925.667 501.329L932.697 501.476L927.094 505.809L929.13 512.674L923.358 508.577L917.587 512.674L919.623 505.809L914.02 501.476L921.05 501.329L923.358 494.555Z" fill="#FACC15"/>
</g>
</g>
<rect x="1" y="1" width="979" height="669" rx="21" stroke="#0F172A" stroke-width="2"/>
</g>
<defs>
<filter id="filter0_d_82_227667" x="0" y="0" width="993" height="683" filterUnits="userSpaceOnUse" color-interpolation-filters="sRGB">
<feFlood flood-opacity="0" result="BackgroundImageFix"/>
<feColorMatrix in="SourceAlpha" type="matrix" values="0 0 0 0 0 0 0 0 0 0 0 0 0 0 0 0 0 0 127 0" result="hardAlpha"/>
<feOffset dx="12" dy="12"/>
<feColorMatrix type="matrix" values="0 0 0 0 0.0588235 0 0 0 0 0.0901961 0 0 0 0 0.164706 0 0 0 1 0"/>
<feBlend mode="normal" in2="BackgroundImageFix" result="effect1_dropShadow_82_227667"/>
<feBlend mode="normal" in="SourceGraphic" in2="effect1_dropShadow_82_227667" result="shape"/>
</filter>
<clipPath id="clip0_82_227667">
<rect x="2" y="2" width="977" height="667" rx="20" fill="white"/>
</clipPath>
<clipPath id="clip1_82_227667">
<rect x="569.053" y="103.096" width="163.652" height="228.699" rx="20" fill="white"/>
</clipPath>
<clipPath id="clip2_82_227667">
<rect x="569.053" y="358.504" width="163.652" height="255.408" rx="20" fill="white"/>
</clipPath>
<clipPath id="clip3_82_227667">
<rect x="758.889" y="298.408" width="163.652" height="285.456" rx="20" fill="white"/>
</clipPath>
</defs>
</svg>
