<svg width="317" height="536" viewBox="0 0 317 536" fill="none" xmlns="http://www.w3.org/2000/svg">
<g filter="url(#filter0_d_356_21187)">
<g clip-path="url(#clip0_356_21187)">
<path d="M0.5 0H304.5V524H0.5V0Z" fill="#DBEAFE"/>
<path d="M28.2943 364.005C28.2943 356.288 36.0718 350.032 45.6657 350.032H259.334C268.928 350.032 276.706 356.288 276.706 364.005V472.997C276.706 480.715 268.928 486.971 259.334 486.971H45.6657C36.0718 486.971 28.2943 480.715 28.2943 472.997V364.005Z" fill="white"/>
<mask id="mask0_356_21187" style="mask-type:alpha" maskUnits="userSpaceOnUse" x="28" y="350" width="249" height="137">
<path d="M28.2943 364.005C28.2943 356.288 36.0718 350.032 45.6657 350.032H259.334C268.928 350.032 276.706 356.288 276.706 364.005V472.997C276.706 480.715 268.928 486.971 259.334 486.971H45.6657C36.0718 486.971 28.2943 480.715 28.2943 472.997V364.005Z" fill="white"/>
</mask>
<g mask="url(#mask0_356_21187)">
<path d="M215.037 395.795C215.037 403.319 207.454 409.419 198.1 409.419C188.746 409.419 181.163 403.319 181.163 395.795C181.163 388.27 188.746 382.171 198.1 382.171C207.454 382.171 215.037 388.27 215.037 395.795Z" fill="#FACC15"/>
<path d="M157.711 376.232C157.711 407.68 126.018 433.173 86.9229 433.173C47.8275 433.173 16.1343 407.68 16.1343 376.232C16.1343 344.784 47.8275 319.291 86.9229 319.291C126.018 319.291 157.711 344.784 157.711 376.232Z" fill="white"/>
<path fill-rule="evenodd" clip-rule="evenodd" d="M86.9229 426.187C121.221 426.187 149.026 403.821 149.026 376.232C149.026 348.643 121.221 326.277 86.9229 326.277C52.6244 326.277 24.8201 348.643 24.8201 376.232C24.8201 403.821 52.6244 426.187 86.9229 426.187ZM86.9229 433.173C126.018 433.173 157.711 407.68 157.711 376.232C157.711 344.784 126.018 319.291 86.9229 319.291C47.8275 319.291 16.1343 344.784 16.1343 376.232C16.1343 407.68 47.8275 433.173 86.9229 433.173Z" fill="#DBEAFE"/>
</g>
<path d="M276.706 504.437L123.837 504.437L276.706 387.061L276.706 504.437Z" fill="#BFDBFE"/>
<path d="M28.2943 323.483C28.2943 321.167 30.6275 319.291 33.5057 319.291H158.58C161.458 319.291 163.791 321.167 163.791 323.483C163.791 325.798 161.458 327.675 158.58 327.675H33.5057C30.6276 327.675 28.2943 325.798 28.2943 323.483Z" fill="white"/>
<mask id="path-11-inside-1_356_21187" fill="white">
<path d="M0.5 456.928H304.5V524H0.5V456.928Z"/>
</mask>
<path d="M0.5 456.928H304.5V524H0.5V456.928Z" fill="#DBEAFE"/>
<path d="M0.5 456.928V459.928H304.5V456.928V453.928H0.5V456.928Z" fill="white" mask="url(#path-11-inside-1_356_21187)"/>
<path fill-rule="evenodd" clip-rule="evenodd" d="M42.6777 476.841C43.2945 476.861 43.8094 477.226 43.9109 477.716L48.1722 498.282L51.7959 488.08C51.9528 487.638 52.4492 487.33 53.0203 487.32C53.5914 487.31 54.104 487.601 54.2846 488.037L56.5934 493.608H60.8657C61.5853 493.608 62.1686 494.077 62.1686 494.656C62.1686 495.235 61.5853 495.704 60.8657 495.704H55.6543C55.0935 495.704 54.5957 495.415 54.4183 494.987L53.1444 491.913L49.0899 503.328C48.9225 503.799 48.3717 504.114 47.7635 504.086C47.1553 504.059 46.6522 503.696 46.552 503.212L42.3704 483.03L38.6783 494.91C38.5333 495.377 38.0121 495.704 37.4143 495.704H32.2029C31.4833 495.704 30.9 495.235 30.9 494.656C30.9 494.077 31.4833 493.608 32.2029 493.608H36.3971L41.3618 477.634C41.5115 477.152 42.0609 476.821 42.6777 476.841Z" fill="white"/>
<path fill-rule="evenodd" clip-rule="evenodd" d="M63.4714 493.608C62.7519 493.608 62.1686 494.077 62.1686 494.656C62.1686 495.235 62.7519 495.704 63.4714 495.704C64.191 495.704 64.7743 495.235 64.7743 494.656C64.7743 494.077 64.191 493.608 63.4714 493.608ZM59.5629 494.656C59.5629 492.92 61.3128 491.512 63.4714 491.512C65.6301 491.512 67.38 492.92 67.38 494.656C67.38 496.392 65.6301 497.8 63.4714 497.8C61.3128 497.8 59.5629 496.392 59.5629 494.656Z" fill="white"/>
<path fill-rule="evenodd" clip-rule="evenodd" d="M141.827 478.751C144.145 477.505 146.87 476.84 149.657 476.84V477.888L149.657 476.84C153.395 476.84 156.98 478.035 159.623 480.161C162.267 482.287 163.752 485.171 163.752 488.177V488.177C163.752 490.42 162.925 492.612 161.376 494.476C159.828 496.341 157.626 497.794 155.051 498.652C152.476 499.51 149.642 499.734 146.908 499.297C144.174 498.859 141.662 497.78 139.691 496.194C137.72 494.609 136.378 492.588 135.834 490.389C135.29 488.19 135.569 485.91 136.636 483.839C137.703 481.767 139.509 479.996 141.827 478.751ZM149.657 478.936C152.704 478.936 155.626 479.91 157.781 481.643C159.935 483.376 161.146 485.726 161.146 488.177M149.657 478.936C147.385 478.936 145.164 479.478 143.275 480.493C141.385 481.509 139.913 482.952 139.043 484.641C138.174 486.329 137.946 488.188 138.389 489.98C138.833 491.773 139.927 493.42 141.534 494.712C143.14 496.004 145.187 496.885 147.416 497.241C149.645 497.598 151.955 497.415 154.054 496.715C156.153 496.016 157.947 494.831 159.21 493.312C160.472 491.792 161.146 490.005 161.146 488.177" fill="white"/>
<path fill-rule="evenodd" clip-rule="evenodd" d="M158.28 495.113C158.788 494.704 159.613 494.704 160.122 495.113L169.056 502.299C169.564 502.708 169.564 503.372 169.056 503.781C168.547 504.19 167.722 504.19 167.213 503.781L158.28 496.595C157.771 496.186 157.771 495.522 158.28 495.113Z" fill="white"/>
<path fill-rule="evenodd" clip-rule="evenodd" d="M240.226 484.176C240.226 483.597 240.809 483.128 241.529 483.128H270.191C270.911 483.128 271.494 483.597 271.494 484.176C271.494 484.755 270.911 485.224 270.191 485.224H241.529C240.809 485.224 240.226 484.755 240.226 484.176Z" fill="white"/>
<path fill-rule="evenodd" clip-rule="evenodd" d="M240.226 490.464C240.226 489.885 240.809 489.416 241.529 489.416H270.191C270.911 489.416 271.494 489.885 271.494 490.464C271.494 491.043 270.911 491.512 270.191 491.512H241.529C240.809 491.512 240.226 491.043 240.226 490.464Z" fill="white"/>
<path fill-rule="evenodd" clip-rule="evenodd" d="M240.226 496.752C240.226 496.173 240.809 495.704 241.529 495.704H270.191C270.911 495.704 271.494 496.173 271.494 496.752C271.494 497.331 270.911 497.8 270.191 497.8H241.529C240.809 497.8 240.226 497.331 240.226 496.752Z" fill="white"/>
<path fill-rule="evenodd" clip-rule="evenodd" d="M49.5448 60.0218C50.308 60.6357 50.308 61.631 49.5448 62.2449L39.201 70.5653L49.5448 78.8858C50.308 79.4997 50.308 80.495 49.5448 81.1089C48.7816 81.7228 47.5442 81.7228 46.781 81.1089L35.0553 71.6769C34.2921 71.063 34.2921 70.0677 35.0553 69.4538L46.781 60.0218C47.5442 59.4079 48.7816 59.4079 49.5448 60.0218Z" fill="white"/>
<path fill-rule="evenodd" clip-rule="evenodd" d="M36.1115 70.5653C36.1115 69.6972 36.9864 68.9933 38.0657 68.9933H61.8429C62.9222 68.9933 63.7972 69.6972 63.7972 70.5653C63.7972 71.4335 62.9222 72.1373 61.8429 72.1373H38.0657C36.9864 72.1373 36.1115 71.4335 36.1115 70.5653Z" fill="white"/>
<path d="M95.1743 70.5653C95.1743 67.4784 98.2853 64.976 102.123 64.976H202.877C206.715 64.976 209.826 67.4784 209.826 70.5653C209.826 73.6522 206.715 76.1547 202.877 76.1547H102.123C98.2853 76.1547 95.1743 73.6522 95.1743 70.5653Z" fill="#BFDBFE"/>
<path d="M28.2943 125.061C28.2943 122.746 30.6275 120.869 33.5057 120.869H106.466C109.344 120.869 111.677 122.746 111.677 125.061C111.677 127.376 109.344 129.253 106.466 129.253H33.5057C30.6275 129.253 28.2943 127.376 28.2943 125.061Z" fill="white"/>
<path d="M28.2943 144.624C28.2943 142.309 30.6275 140.432 33.5057 140.432H145.551C148.43 140.432 150.763 142.309 150.763 144.624C150.763 146.939 148.43 148.816 145.551 148.816H33.5057C30.6275 148.816 28.2943 146.939 28.2943 144.624Z" fill="white"/>
<path d="M125.574 125.061C125.574 122.746 127.908 120.869 130.786 120.869H217.643C220.521 120.869 222.854 122.746 222.854 125.061C222.854 127.376 220.521 129.253 217.643 129.253H130.786C127.908 129.253 125.574 127.376 125.574 125.061Z" fill="white"/>
<g clip-path="url(#clip1_356_21187)">
<rect x="28.2943" y="171.173" width="104.229" height="114.581" rx="20" fill="white"/>
<path d="M97.724 285.854C97.724 314.848 68.6746 338.353 32.8403 338.353C-2.99398 338.353 -32.0434 314.848 -32.0434 285.854C-32.0434 256.859 -2.99398 233.355 32.8403 233.355C68.6746 233.355 97.724 256.859 97.724 285.854Z" fill="#FACC15"/>
<path d="M115.081 205.615C115.081 216.142 104.535 224.676 91.5249 224.676C78.515 224.676 67.9684 216.142 67.9684 205.615C67.9684 195.089 78.515 186.555 91.5249 186.555C104.535 186.555 115.081 195.089 115.081 205.615Z" fill="white"/>
<path fill-rule="evenodd" clip-rule="evenodd" d="M91.5249 222.58C103.081 222.58 112.476 214.996 112.476 205.615C112.476 196.235 103.081 188.651 91.5249 188.651C79.9685 188.651 70.5741 196.235 70.5741 205.615C70.5741 214.996 79.9685 222.58 91.5249 222.58ZM91.5249 224.676C104.535 224.676 115.081 216.142 115.081 205.615C115.081 195.089 104.535 186.555 91.5249 186.555C78.515 186.555 67.9684 195.089 67.9684 205.615C67.9684 216.142 78.515 224.676 91.5249 224.676Z" fill="#BFDBFE"/>
</g>
<rect x="146.42" y="171.173" width="104.229" height="114.581" rx="20" fill="white"/>
<path d="M236.359 201.937C236.359 207.108 231.09 211.3 224.591 211.3C218.092 211.3 212.824 207.108 212.824 201.937C212.824 196.766 218.092 192.574 224.591 192.574C231.09 192.574 236.359 196.766 236.359 201.937Z" fill="#FACC15"/>
<path d="M217.867 253.099C217.867 263.625 207.142 272.159 193.911 272.159C180.681 272.159 169.955 263.625 169.955 253.099C169.955 242.572 180.681 234.038 193.911 234.038C207.142 234.038 217.867 242.572 217.867 253.099Z" fill="#BFDBFE"/>
<path fill-rule="evenodd" clip-rule="evenodd" d="M193.911 270.063C205.729 270.063 215.261 262.446 215.261 253.099C215.261 243.751 205.729 236.134 193.911 236.134C182.093 236.134 172.561 243.751 172.561 253.099C172.561 262.446 182.093 270.063 193.911 270.063ZM193.911 272.159C207.142 272.159 217.867 263.625 217.867 253.099C217.867 242.572 207.142 234.038 193.911 234.038C180.681 234.038 169.955 242.572 169.955 253.099C169.955 263.625 180.681 272.159 193.911 272.159Z" fill="#BFDBFE"/>
<rect x="264.546" y="171.173" width="104.229" height="114.581" rx="20" fill="white"/>
<path d="M304.5 200.517L312.669 219.42L337.542 219.828L317.717 231.918L324.921 251.073L304.5 239.643L284.079 251.073L291.283 231.918L271.458 219.828L296.332 219.42L304.5 200.517Z" fill="white"/>
<path fill-rule="evenodd" clip-rule="evenodd" d="M312.669 219.42L304.5 200.517L296.332 219.42L271.458 219.828L291.283 231.918L284.079 251.073L304.5 239.643L324.921 251.073L317.717 231.918L337.542 219.828L312.669 219.42ZM329.995 221.801L310.803 221.486L304.5 206.901L298.197 221.486L279.005 221.801L294.302 231.129L288.744 245.909L304.5 237.089L320.257 245.909L314.698 231.129L329.995 221.801Z" fill="#FACC15"/>
</g>
<rect x="1.5" y="1" width="302" height="522" rx="19" stroke="#0F172A" stroke-width="2" shape-rendering="crispEdges"/>
</g>
<defs>
<filter id="filter0_d_356_21187" x="0.5" y="0" width="316" height="536" filterUnits="userSpaceOnUse" color-interpolation-filters="sRGB">
<feFlood flood-opacity="0" result="BackgroundImageFix"/>
<feColorMatrix in="SourceAlpha" type="matrix" values="0 0 0 0 0 0 0 0 0 0 0 0 0 0 0 0 0 0 127 0" result="hardAlpha"/>
<feOffset dx="12" dy="12"/>
<feComposite in2="hardAlpha" operator="out"/>
<feColorMatrix type="matrix" values="0 0 0 0 0.0588235 0 0 0 0 0.0901961 0 0 0 0 0.164706 0 0 0 1 0"/>
<feBlend mode="normal" in2="BackgroundImageFix" result="effect1_dropShadow_356_21187"/>
<feBlend mode="normal" in="SourceGraphic" in2="effect1_dropShadow_356_21187" result="shape"/>
</filter>
<clipPath id="clip0_356_21187">
<rect x="0.5" width="304" height="524" rx="20" fill="white"/>
</clipPath>
<clipPath id="clip1_356_21187">
<rect x="28.2943" y="171.173" width="104.229" height="114.581" rx="20" fill="white"/>
</clipPath>
</defs>
</svg>
