<svg width="100" height="41" viewBox="0 0 100 41" fill="none" xmlns="http://www.w3.org/2000/svg">
<g clip-path="url(#clip0_116_10974)">
<path d="M0.5 20.5C0.5 11.0719 0.5 6.35786 3.42893 3.42893C6.35786 0.5 11.0719 0.5 20.5 0.5C29.9281 0.5 34.6421 0.5 37.5711 3.42893C40.5 6.35786 40.5 11.0719 40.5 20.5C40.5 29.9281 40.5 34.6421 37.5711 37.5711C34.6421 40.5 29.9281 40.5 20.5 40.5C11.0719 40.5 6.35786 40.5 3.42893 37.5711C0.5 34.6421 0.5 29.9281 0.5 20.5Z" fill="#0C4A6E"/>
<path d="M24.5007 26.5C25.053 26.5 25.5108 26.9521 25.4011 27.4934C25.2072 28.4494 24.7362 29.3355 24.0362 30.0355C23.0986 30.9732 21.8268 31.5 20.5007 31.5C19.1746 31.5 17.9029 30.9732 16.9652 30.0355C16.2652 29.3355 15.7942 28.4494 15.6004 27.4934C15.4906 26.9521 15.9484 26.5 16.5007 26.5H24.5007Z" fill="#CBD5E1"/>
<path d="M26.6027 18.2765C26.0692 18.4194 25.7425 18.9775 26.013 19.459C26.2977 19.9658 26.6915 20.4081 27.1706 20.7514C27.9228 21.2904 28.8386 21.552 29.7621 21.4914C30.6855 21.4309 31.5594 21.0521 32.2348 20.4195C32.9103 19.7869 33.3454 18.9396 33.4662 18.0221C33.587 17.1046 33.386 16.1736 32.8973 15.3877C32.4086 14.6019 31.6625 14.0098 30.7862 13.7123C29.9099 13.4148 28.9576 13.4304 28.0915 13.7564C27.5399 13.964 27.0451 14.2893 26.6389 14.7051C26.253 15.1002 26.4241 15.7239 26.9024 16L27.4097 16.2929C28.1812 16.7384 28.0291 17.8943 27.1685 18.1249L26.6027 18.2765Z" fill="#CBD5E1"/>
<path d="M14.3977 18.2765C14.9312 18.4194 15.2579 18.9775 14.9874 19.459C14.7027 19.9658 14.3089 20.4081 13.8299 20.7514C13.0777 21.2904 12.1618 21.552 11.2384 21.4914C10.315 21.4309 9.44107 21.0521 8.76564 20.4195C8.09021 19.7869 7.65502 18.9396 7.53423 18.0221C7.41344 17.1046 7.61451 16.1736 8.1032 15.3877C8.59188 14.6019 9.33794 14.0098 10.2142 13.7123C11.0905 13.4148 12.0429 13.4304 12.909 13.7564C13.4605 13.964 13.9554 14.2893 14.3616 14.7051C14.7475 15.1002 14.5763 15.7239 14.098 16L13.5907 16.2929C12.8192 16.7384 12.9714 17.8943 13.8319 18.1249L14.3977 18.2765Z" fill="#CBD5E1"/>
</g>
<defs>
<clipPath id="clip0_116_10974">
<rect width="99" height="40" fill="white" transform="translate(0.5 0.5)"/>
</clipPath>
</defs>
</svg>
