<svg width="139" height="40" viewBox="0 0 139 40" fill="none" xmlns="http://www.w3.org/2000/svg">
<path d="M17.1229 2.5H26.1217L22.5096 12.5943C16.152 13.7115 11.2894 19.8625 11.2894 27.283C11.2894 30.6305 12.279 33.7197 13.9489 36.2049H2L12.9236 5.67808C13.6104 3.75863 15.2735 2.5 17.1229 2.5Z" fill="#7C3AED"/>
<path d="M31.8172 2.5H22.8184L26.4153 12.5517C32.8994 13.5452 37.8945 19.762 37.8945 27.283C37.8945 30.6305 36.9049 33.7197 35.235 36.2049H46.9401L36.0165 5.67809C35.3297 3.75863 33.6666 2.5 31.8172 2.5Z" fill="#4C1D95"/>
<path d="M15.5173 35.2334C13.9795 33.0434 13.0625 30.2829 13.0625 27.2829C13.0625 20.1655 18.2241 14.3958 24.5912 14.3958C30.9584 14.3958 36.12 20.1655 36.12 27.2829C36.12 30.2829 35.203 33.0434 33.6652 35.2334C31.1407 33.354 27.9979 32.2395 24.5912 32.2395C21.1846 32.2395 18.0418 33.354 15.5173 35.2334Z" fill="#4C1D95"/>
</svg>
