<svg width="139" height="37" viewBox="0 0 139 37" fill="none" xmlns="http://www.w3.org/2000/svg">
<path d="M11.8071 33.1547L8.55469 27.5213L13.3278 19.2767L16.3609 24.5306L34.2661 24.521L29.1854 33.2325L11.8071 33.1547Z" fill="#FDBA74"/>
<path d="M37.4643 18.9272L34.2119 24.5605L24.6853 24.5493L27.7187 19.2955L18.7578 3.79395L28.8425 3.8382L37.4643 18.9272Z" fill="#CCFBF1"/>
<path d="M12.3093 3.76398H18.8142L23.5677 12.02L17.501 12.0197L8.55681 27.5309L3.55273 18.7752L12.3093 3.76398Z" fill="#FB923C"/>
<path fill-rule="evenodd" clip-rule="evenodd" d="M19.6073 2.45961L19.5879 2.42596H11.5409L2.00781 18.7684L8.55175 30.2184L8.55978 30.2045L11.0337 34.4894L29.9531 34.574L36.5972 23.1817H36.553L39.0074 18.9306L29.621 2.50354L19.6073 2.45961ZM25.8321 13.358H25.8823L21.152 5.14252L28.0641 5.17283L35.9213 18.9237L33.462 23.1835L27.017 23.1869L29.2641 19.295L25.8321 13.358ZM17.9686 5.10202L21.194 10.6818L16.7282 10.6817L9.08262 23.9406L8.5611 24.8415L5.09797 18.782L13.078 5.10202H17.9686ZM14.8675 19.2656L18.2741 13.3578L22.7411 13.358L26.1735 19.2958L23.9259 23.1886L17.1344 23.1923L14.8675 19.2656ZM10.1038 27.5267L11.3999 25.2792L13.3272 21.9501L15.5897 25.8692L22.3802 25.8655L22.3692 25.8845L31.9164 25.8958L28.4199 31.8911L12.5827 31.8202L10.1038 27.5267Z" fill="#E2E8F0"/>
</svg>
