<svg width="83" height="51" viewBox="0 0 83 51" fill="none" xmlns="http://www.w3.org/2000/svg">
<path d="M35.1441 22.3115C40.6149 22.3115 45.0498 17.8765 45.0498 12.4057C45.0498 6.93496 40.6149 2.5 35.1441 2.5C29.6733 2.5 25.2383 6.93496 25.2383 12.4057C25.2383 17.8765 29.6733 22.3115 35.1441 22.3115Z" fill="#334155"/>
<path d="M57.2886 22.3115C62.7594 22.3115 67.1943 17.8765 67.1943 12.4057C67.1943 6.93496 62.7594 2.5 57.2886 2.5C51.8178 2.5 47.3828 6.93496 47.3828 12.4057C47.3828 17.8765 51.8178 22.3115 57.2886 22.3115Z" fill="#475569"/>
<path d="M22.9056 2.5H3.10352V22.302H22.9056V2.5Z" fill="#E2E8F0"/>
</svg>
