<svg width="117" height="32" viewBox="0 0 117 32" fill="none" xmlns="http://www.w3.org/2000/svg">
<g clip-path="url(#clip0_116_11064)">
<path d="M39.2812 15.5127C39.2812 11.3985 37.6468 7.45275 34.7376 4.54356C31.8284 1.63437 27.8827 5.39515e-07 23.7685 0C19.6543 -5.39514e-07 15.7086 1.63437 12.7994 4.54356C9.89023 7.45275 8.25586 11.3985 8.25586 15.5127H13.1036C14.71 15.5127 15.9628 14.1665 16.5512 12.6717C16.9375 11.6903 17.5237 10.7884 18.2839 10.0281C19.7385 8.57352 21.7114 7.75634 23.7685 7.75634C25.8256 7.75634 27.7985 8.57352 29.2531 10.0281C30.7077 11.4827 31.5248 13.4556 31.5248 15.5127H39.2812Z" fill="#0D9488"/>
<path d="M30.3444 21.4491C31.124 19.567 31.5253 17.5498 31.5253 15.5127H39.2808C39.2808 24.0801 32.3355 31.0253 23.7681 31.0253C22.4264 31.0253 21.1244 30.855 19.8828 30.5348C20.5853 30.3538 21.2758 30.1233 21.949 29.8445C23.8311 29.0649 25.5412 27.9223 26.9817 26.4818C28.4222 25.0413 29.5649 23.3312 30.3444 21.4491Z" fill="#FDBA74"/>
<path d="M0.5 15.5126C0.5 17.5498 0.901247 19.567 1.68083 21.4491C2.46042 23.3312 3.60307 25.0413 5.04356 26.4818C6.48404 27.9222 8.19415 29.0649 10.0762 29.8445C11.9583 30.6241 13.9755 31.0253 16.0127 31.0253C18.0498 31.0253 20.067 30.6241 21.9491 29.8445C23.8312 29.0649 25.5413 27.9222 26.9818 26.4818C28.4223 25.0413 29.5649 23.3312 30.3445 21.4491C31.1241 19.567 31.5254 17.5498 31.5254 15.5126H26.6776C25.0712 15.5126 23.8184 16.8588 23.23 18.3535C23.2133 18.3961 23.1961 18.4385 23.1786 18.4809C22.7888 19.4219 22.2175 20.277 21.4972 20.9972C20.777 21.7174 19.9219 22.2888 18.9809 22.6786C18.0399 23.0684 17.0313 23.269 16.0127 23.269C14.9941 23.269 13.9855 23.0684 13.0445 22.6786C12.1034 22.2888 11.2484 21.7174 10.5281 20.9972C9.80787 20.277 9.23655 19.4219 8.84676 18.4809C8.45696 17.5398 8.25634 16.5312 8.25634 15.5126H0.5Z" fill="#FB923C"/>
<path d="M0.501953 15.5127C0.501953 6.94524 7.4472 0 16.0146 0C17.356 0 18.6576 0.170246 19.8991 0.490323C17.2352 1.17657 14.7778 2.56535 12.7995 4.54357C9.89029 7.45273 8.25594 11.3985 8.25594 15.5127H0.501953Z" fill="#2DD4BF"/>
</g>
<defs>
<clipPath id="clip0_116_11064">
<rect width="116" height="32" fill="white" transform="translate(0.5)"/>
</clipPath>
</defs>
</svg>
