<svg width="125" height="36" viewBox="0 0 125 36" fill="none" xmlns="http://www.w3.org/2000/svg">
<path d="M8.41 16.8847C9.14777 13.9194 10.8564 11.2861 13.2639 9.40424C15.6714 7.52234 18.6393 6.5 21.695 6.5C24.7507 6.5 27.7186 7.52234 30.1261 9.40424C32.5336 11.2861 34.2422 13.9194 34.98 16.8847H33.78C31.7557 16.8549 29.7729 17.4599 28.11 18.6147C28.014 18.6842 27.9138 18.7477 27.81 18.8047H27.67C27.5662 18.7477 27.466 18.6842 27.37 18.6147C25.6924 17.4866 23.7166 16.8841 21.695 16.8841C19.6734 16.8841 17.6976 17.4866 16.02 18.6147C15.924 18.6842 15.8238 18.7477 15.72 18.8047H15.58C15.4762 18.7477 15.376 18.6842 15.28 18.6147C13.6171 17.4599 11.6343 16.8549 9.61 16.8847H8.41ZM31.62 23.1547C32.236 22.675 32.9995 22.424 33.78 22.4447H35.39V19.2347H33.78C32.4052 19.2181 31.0619 19.646 29.95 20.4547C29.3243 20.916 28.5674 21.1649 27.79 21.1649C27.0126 21.1649 26.2557 20.916 25.63 20.4547C24.4899 19.6611 23.1341 19.2356 21.745 19.2356C20.3559 19.2356 19.0001 19.6611 17.86 20.4547C17.2343 20.916 16.4774 21.1649 15.7 21.1649C14.9226 21.1649 14.1657 20.916 13.54 20.4547C12.4144 19.6356 11.0518 19.2072 9.66 19.2347H8V22.4447H9.61C10.3905 22.424 11.154 22.675 11.77 23.1547C12.908 23.9489 14.2623 24.3747 15.65 24.3747C17.0377 24.3747 18.392 23.9489 19.53 23.1547C20.1468 22.6765 20.9097 22.4257 21.69 22.4447C22.4708 22.4223 23.2348 22.6735 23.85 23.1547C24.9901 23.9484 26.3459 24.3738 27.735 24.3738C29.1241 24.3738 30.4799 23.9484 31.62 23.1547ZM31.62 28.8947C32.236 28.415 32.9995 28.164 33.78 28.1847H35.39V24.9747H33.78C32.4052 24.9581 31.0619 25.386 29.95 26.1947C29.3243 26.656 28.5674 26.9049 27.79 26.9049C27.0126 26.9049 26.2557 26.656 25.63 26.1947C24.4899 25.4011 23.1341 24.9757 21.745 24.9757C20.3559 24.9757 19.0001 25.4011 17.86 26.1947C17.2343 26.656 16.4774 26.9049 15.7 26.9049C14.9226 26.9049 14.1657 26.656 13.54 26.1947C12.4144 25.3757 11.0518 24.9472 9.66 24.9747H8V28.1847H9.61C10.3905 28.164 11.154 28.415 11.77 28.8947C12.908 29.6889 14.2623 30.1147 15.65 30.1147C17.0377 30.1147 18.392 29.6889 19.53 28.8947C20.1468 28.4165 20.9097 28.1657 21.69 28.1847C22.4708 28.1623 23.2348 28.4135 23.85 28.8947C24.9901 29.6884 26.3459 30.1138 27.735 30.1138C29.1241 30.1138 30.4799 29.6884 31.62 28.8947Z" fill="#0EA5E9"/>
</svg>
