<svg width="146" height="46" viewBox="0 0 146 46" fill="none" xmlns="http://www.w3.org/2000/svg">
<path fill-rule="evenodd" clip-rule="evenodd" d="M27.1041 3.72414C25.6103 2.23101 23.189 2.2315 21.6959 3.72525L9.23456 16.1917L9.22394 16.1886L9.18456 16.1928C9.20078 16.2006 9.2167 16.2083 9.2323 16.2161C7.04632 16.4451 6.11884 17.102 6.10834 17.9456C6.11204 18.2594 6.24079 18.5983 6.47728 18.9501L6.46591 18.9615C8.45319 21.9588 18.2981 25.9127 25.2631 23.2338C20.0431 25.8438 7.74976 26.3611 4.13901 21.2935C3.35487 22.1418 3.02679 23.2566 3.15034 24.3279C4.1042 29.5853 14.7684 31.0196 25.4327 23.4023L27.7404 25.71C24.8688 28.6602 20.6271 45.7967 26.9298 43.1803C27.0793 43.0788 27.2062 42.988 27.3788 42.8574L27.6597 42.5922C27.6435 42.5962 27.6274 42.6 27.6114 42.6038L44.4914 26.6681C46.0587 25.1884 46.0942 22.7065 44.5697 21.1826L27.1041 3.72414ZM25.2659 8.91743L25.8428 6.60974L26.4197 8.91743L28.1505 9.49436L26.4197 10.0713L25.8428 12.379L25.2659 10.0713L23.5351 9.49436L25.2659 8.91743ZM18.125 16.4508L18.5096 14.9123L18.8942 16.4508L20.0481 16.8354L18.8942 17.22L18.5096 18.7585L18.125 17.22L16.9712 16.8354L18.125 16.4508ZM31.5206 29.4277L31.136 30.9661L29.9822 31.3508L31.136 31.7354L31.5206 33.2738L31.9052 31.7354L33.0591 31.3508L31.9052 30.9661L31.5206 29.4277Z" fill="#4F46E5"/>
<path fill-rule="evenodd" clip-rule="evenodd" d="M45.7912 5.25128C42.1825 5.25128 38.7602 6.85419 36.4499 9.62649L28.2309 19.4894L32.9769 12.3703L25.0989 15.7466C24.0984 16.1754 23.8474 17.4789 24.617 18.2486L27.1522 20.7837L25.8578 22.337L28.7055 25.1846L30.2587 23.8902L32.7939 26.4254C33.5635 27.195 34.8671 26.944 35.2958 25.9436L38.6721 18.0656L31.5531 22.8116L41.416 14.5925C44.1883 12.2823 45.7912 8.86 45.7912 5.25128ZM37.9603 13.0824C38.7466 13.8687 40.0215 13.8687 40.8079 13.0824C41.5942 12.296 41.5942 11.0211 40.8079 10.2348C40.0215 9.44841 38.7466 9.44841 37.9603 10.2348C37.1739 11.0211 37.1739 12.296 37.9603 13.0824Z" fill="#A78BFA"/>
<path opacity="0.6" d="M4.04883 21.1609C5.93429 27.6207 17.3975 27.2839 25.2623 23.2348C19.9959 25.8664 7.53785 26.369 4.04883 21.1609Z" fill="#CBD5E1"/>
<path opacity="0.6" d="M26.9311 43.1803C21.6203 45.3849 23.7963 33.5645 26.3307 28.0245C24.4833 32.9487 22.9063 43.8038 27.661 42.5922L27.3801 42.8574C27.2075 42.988 27.0806 43.0788 26.9311 43.1803Z" fill="#CBD5E1"/>
</svg>
