<svg width="111" height="29" viewBox="0 0 111 29" fill="none" xmlns="http://www.w3.org/2000/svg">
<g clip-path="url(#clip0_116_10975)">
<path d="M10.9469 23.968C7.96073 26.9542 2.90329 26.9423 1.49088 22.9624C1.21435 22.1832 0.993259 21.382 0.830644 20.5645C0.166691 17.2265 0.507456 13.7667 1.80985 10.6224C3.11224 7.4782 5.31776 4.79076 8.14751 2.89998C10.9773 1.0092 14.3042 -1.45785e-07 17.7075 0C21.1108 1.45785e-07 24.4377 1.0092 27.2674 2.89998C30.0972 4.79076 32.3027 7.4782 33.6051 10.6225C34.9075 13.7667 35.2482 17.2265 34.5843 20.5645C34.4217 21.382 34.2006 22.1832 33.924 22.9624C32.5116 26.9423 27.4542 26.9542 24.468 23.968L19.8584 19.3584C19.418 18.918 19.4635 18.1917 19.585 17.5809C19.6588 17.2096 19.6209 16.8247 19.476 16.4749C19.3311 16.1251 19.0858 15.8261 18.771 15.6158C18.4562 15.4055 18.0861 15.2932 17.7075 15.2932C17.3289 15.2932 16.9588 15.4055 16.644 15.6158C16.3291 15.8261 16.0838 16.1251 15.9389 16.4749C15.794 16.8247 15.7561 17.2096 15.83 17.5809C15.9515 18.1917 15.9969 18.918 15.5565 19.3584L10.9469 23.968Z" fill="url(#paint0_linear_116_10975)"/>
</g>
<defs>
<linearGradient id="paint0_linear_116_10975" x1="0.5" y1="12.8806" x2="34.9149" y2="12.8806" gradientUnits="userSpaceOnUse">
<stop stop-color="#C026D3"/>
<stop offset="1" stop-color="#701A75"/>
</linearGradient>
<clipPath id="clip0_116_10975">
<rect width="110" height="29" fill="white" transform="translate(0.5)"/>
</clipPath>
</defs>
</svg>
